<svg xmlns="http://www.w3.org/2000/svg" width="38.458" height="16.872" viewBox="0 0 38.458 16.872">
  <g id="Component_3_1" data-name="Component 3 – 1" transform="translate(0.164 0.163)">
    <path id="Path_144" data-name="Path 144" d="M0,9.3s10.706,4.358,18.564,1.438,11.625-.813,11.625-.813" transform="matrix(0.998, 0.07, -0.07, 0.998, 8.531, -0.103)" fill="none" stroke="#59c3cc" stroke-width="1"/>
    <ellipse id="Ellipse_51" data-name="Ellipse 51" cx="2.782" cy="2.82" rx="2.782" ry="2.82" transform="translate(5.293 5.447)" fill="#59c3cc" stroke="#ffb100" stroke-width="1"/>
    <path id="Path_129" data-name="Path 129" d="M16618.6-5163.257s.184-.043.207-.165-.289-2.448-.316-2.6-.227-.288-.3-.571.063-.425,0-.563-.34-.079-.5-.542a1,1,0,0,1,.676-1.348c.742-.251,1.172.622,1.172.622a.979.979,0,0,1,1.051-.622c.793.1.9,1.13.855,1.348s-.414.327-.434.542a1.889,1.889,0,0,1-.039.563c-.086.245-.254.209-.344.571a25.991,25.991,0,0,0-.266,2.6.2.2,0,0,0,.227.165" transform="translate(-16611.434 5169.092)" fill="#e5e5e5" stroke="#707070" stroke-width="0.3"/>
    <path id="Path_137" data-name="Path 137" d="M.982,5.109s.181-.038.208-.144S.9,2.821.87,2.687s-.225-.251-.3-.5.063-.372,0-.493-.339-.07-.5-.475A.853.853,0,0,1,.742.04,1.085,1.085,0,0,1,1.915.585.981.981,0,0,1,2.967.04a1.067,1.067,0,0,1,.854,1.18c-.042.19-.413.287-.433.475s.04.279-.042.493-.254.183-.34.5a19.112,19.112,0,0,0-.264,2.277c.022.166.225.144.225.144" transform="translate(12.113 1.605) rotate(45)" fill="#e5e5e5" stroke="#707070" stroke-width="0.3"/>
    <path id="Path_138" data-name="Path 138" d="M.982,5.835s.181-.043.208-.165S.9,3.222.87,3.069.645,2.782.57,2.5s.063-.425,0-.563-.339-.08-.5-.543A1,1,0,0,1,.742.045c.743-.25,1.174.623,1.174.623A.98.98,0,0,1,2.967.045c.794.1.9,1.131.854,1.348s-.413.327-.433.543a1.8,1.8,0,0,1-.042.563c-.082.245-.254.209-.34.571a24.815,24.815,0,0,0-.264,2.6c.022.189.225.165.225.165" transform="translate(16.344 6.374) rotate(90)" fill="#e5e5e5" stroke="#707070" stroke-width="0.3"/>
    <path id="Path_139" data-name="Path 139" d="M.982,4.9s.181-.036.208-.138S.9,2.707.87,2.579.645,2.338.57,2.1s.063-.357,0-.473-.339-.067-.5-.456S0,.248.742.038A1.1,1.1,0,0,1,1.915.561.984.984,0,0,1,2.967.038,1.025,1.025,0,0,1,3.82,1.17c-.042.182-.413.275-.433.456s.04.268-.042.473-.254.175-.34.48a17.633,17.633,0,0,0-.264,2.185c.022.159.225.138.225.138" transform="translate(14.787 12.266) rotate(135)" fill="#e5e5e5" stroke="#707070" stroke-width="0.3"/>
    <path id="Path_140" data-name="Path 140" d="M.982,5.835s.181-.043.208-.165S.9,3.222.87,3.069.645,2.782.57,2.5s.063-.425,0-.563-.339-.08-.5-.543A1,1,0,0,1,.742.045c.743-.25,1.174.623,1.174.623A.98.98,0,0,1,2.967.045c.794.1.9,1.131.854,1.348s-.413.327-.433.543a1.8,1.8,0,0,1-.042.563c-.082.245-.254.209-.34.571a24.815,24.815,0,0,0-.264,2.6c.022.189.225.165.225.165" transform="translate(10.117 16.545) rotate(180)" fill="#e5e5e5" stroke="#707070" stroke-width="0.3"/>
    <path id="Path_141" data-name="Path 141" d="M.982,5.029s.181-.037.208-.142S.9,2.777.87,2.645.645,2.4.57,2.153s.063-.366,0-.485S.232,1.6.069,1.2A.838.838,0,0,1,.742.039,1.088,1.088,0,0,1,1.915.575.982.982,0,0,1,2.967.039,1.051,1.051,0,0,1,3.82,1.2c-.042.187-.413.282-.433.468s.04.274-.042.485-.254.18-.34.492a18.533,18.533,0,0,0-.264,2.242c.022.163.225.142.225.142" transform="translate(4.324 15.033) rotate(-135)" fill="#e5e5e5" stroke="#707070" stroke-width="0.3"/>
    <path id="Path_142" data-name="Path 142" d="M.982,5.835s.181-.043.208-.165S.9,3.222.87,3.069.645,2.782.57,2.5s.063-.425,0-.563-.339-.08-.5-.543A1,1,0,0,1,.742.045c.743-.25,1.174.623,1.174.623A.98.98,0,0,1,2.967.045c.794.1.9,1.131.854,1.348s-.413.327-.433.543a1.8,1.8,0,0,1-.042.563c-.082.245-.254.209-.34.571a24.815,24.815,0,0,0-.264,2.6c.022.189.225.165.225.165" transform="translate(0 10.202) rotate(-90)" fill="#e5e5e5" stroke="#707070" stroke-width="0.3"/>
    <path id="Path_143" data-name="Path 143" d="M.982,5.052s.181-.037.208-.143S.9,2.79.87,2.658s-.225-.249-.3-.494.063-.368,0-.488-.339-.069-.5-.47A.843.843,0,0,1,.742.039,1.087,1.087,0,0,1,1.915.578.982.982,0,0,1,2.967.039,1.055,1.055,0,0,1,3.82,1.206c-.042.188-.413.284-.433.47s.04.276-.042.488-.254.181-.34.494A18.7,18.7,0,0,0,2.741,4.91c.022.164.225.143.225.143" transform="translate(1.484 4.353) rotate(-45)" fill="#e5e5e5" stroke="#707070" stroke-width="0.3"/>
  </g>
</svg>
